<svg width="640" height="520" viewBox="0 0 640 520" fill="none" xmlns="http://www.w3.org/2000/svg">
  <rect width="640" height="520" rx="40" fill="#EFF6FF"/>
  <circle cx="132" cy="108" r="64" fill="#DBEAFE"/>
  <circle cx="528" cy="126" r="88" fill="#EDE9FE"/>
  <circle cx="502" cy="408" r="52" fill="#DBEAFE"/>
  <path d="M109 403c35-60 95-90 180-90 96 0 158 35 207 90" stroke="#BFDBFE" stroke-width="26" stroke-linecap="round"/>
  <rect x="124" y="342" width="392" height="42" rx="21" fill="#1E3A8A"/>
  <rect x="166" y="383" width="42" height="78" rx="13" fill="#2563EB"/>
  <rect x="434" y="383" width="42" height="78" rx="13" fill="#2563EB"/>
  <rect x="214" y="388" width="214" height="22" rx="11" fill="#93C5FD"/>

  <path d="M308 187c-44 8-78 43-84 88l-5 40h178l-7-43c-8-52-38-77-82-85Z" fill="#2563EB"/>
  <path d="M238 318c-16 7-35-1-42-17l-34-78c-7-16 1-35 17-42 16-7 35 1 42 17l34 78c7 16-1 35-17 42Z" fill="#FDBA74"/>
  <path d="M376 318c16 7 35-1 42-17l34-78c7-16-1-35-17-42-16-7-35 1-42 17l-34 78c-7 16 1 35 17 42Z" fill="#FDBA74"/>
  <circle cx="309" cy="132" r="56" fill="#FDBA74"/>
  <path d="M255 125c0-39 27-70 64-70 36 0 60 25 60 57 0 5-1 11-2 16-35-2-68-13-98-33-6 10-14 20-24 30Z" fill="#111827"/>
  <path d="M286 145c7 8 17 12 29 12s22-4 29-12" stroke="#7C2D12" stroke-width="7" stroke-linecap="round"/>
  <circle cx="289" cy="125" r="5" fill="#111827"/>
  <circle cx="336" cy="125" r="5" fill="#111827"/>

  <rect x="201" y="258" width="218" height="116" rx="16" fill="#FFFFFF" stroke="#CBD5E1" stroke-width="5"/>
  <path d="M229 286h75M229 313h142M229 340h110" stroke="#93C5FD" stroke-width="12" stroke-linecap="round"/>
  <path d="M362 283l31 18-31 18v-36Z" fill="#7C3AED"/>

  <rect x="96" y="136" width="94" height="78" rx="16" fill="#FFFFFF" stroke="#CBD5E1" stroke-width="4"/>
  <path d="M116 162h52M116 187h34" stroke="#2563EB" stroke-width="9" stroke-linecap="round"/>
  <rect x="457" y="188" width="96" height="86" rx="16" fill="#FFFFFF" stroke="#CBD5E1" stroke-width="4"/>
  <path d="M478 216h54M478 242h39" stroke="#7C3AED" stroke-width="9" stroke-linecap="round"/>
</svg>
